<svg width="67" height="15" fill="none" xmlns="http://www.w3.org/2000/svg"><path d="M13.95 2.42c.339 0 .451.168.451.45l.056.787c.62-.563 1.857-1.407 3.826-1.407 1.575 0 2.587.62 3.037 1.632.563-.507 1.8-1.632 4.05-1.632 2.195 0 3.376 1.294 3.376 3.038v8.495c0 .337-.169.45-.45.45h-1.35c-.338 0-.45-.169-.45-.45V5.794c0-.956-.45-1.575-1.744-1.575-1.575 0-2.644.844-3.094 1.238v8.269c0 .338-.113.45-.45.45h-1.406c-.338 0-.45-.168-.45-.45V5.794c0-.956-.45-1.575-1.744-1.575-1.52 0-2.645.788-3.095 1.238v8.27c0 .337-.112.45-.45.45h-1.406c-.338 0-.45-.17-.45-.45V2.868c0-.281.112-.45.45-.45h1.294ZM31.728 5.4c0-1.912 1.238-3.206 4.5-3.206 3.376 0 4.501 1.294 4.501 3.206v8.326c0 .338-.112.506-.45.506h-1.238c-.337 0-.45-.168-.45-.506l-.056-.675a5.9 5.9 0 0 1-3.77 1.35c-2.193 0-3.374-1.35-3.374-2.869v-1.125c0-1.575 1.125-2.869 3.319-2.869h3.769V5.682c0-.957-.507-1.632-2.307-1.632-1.8 0-2.362.563-2.362 1.575v.17c0 .337-.113.45-.45.45h-1.238c-.281 0-.45-.17-.45-.45V5.4h.056Zm6.75 5.907V9.282h-3.262c-1.181 0-1.575.506-1.575 1.463v.45c0 .956.506 1.35 1.688 1.35 1.462 0 2.643-.788 3.15-1.238ZM50.348 2.644v1.069c0 .337-.169.45-.45.45-1.8.112-3.15 1.069-3.713 1.519v7.988c0 .338-.112.45-.45.45H44.33c-.338 0-.45-.169-.45-.45V2.869c0-.281.112-.45.45-.45h1.238c.337 0 .45.169.45.45l.056 1.013c.619-.62 1.969-1.688 3.713-1.688.393 0 .562.169.562.45ZM67 2.644v1.069c0 .337-.17.45-.45.45-1.8.112-3.15 1.069-3.713 1.519v7.988c0 .338-.113.45-.45.45H60.98c-.337 0-.45-.169-.45-.45V2.869c0-.281.113-.45.45-.45h1.238c.337 0 .45.169.45.45l.056 1.013c.619-.62 1.97-1.688 3.713-1.688.394 0 .563.169.563.45ZM58.224 12.995v.956c0 .338-.168.507-.506.507h-.787c-1.632 0-2.757-.282-3.376-.9-.618-.563-.9-1.407-.9-2.757V.62c0-.338.169-.45.45-.45h1.407c.281 0 .45.169.45.45v1.575h2.419c.337 0 .506.169.506.45V3.6c0 .338-.169.507-.506.507h-2.363v6.92c0 1.012.731 1.518 2.306 1.518h.45c.282-.056.45.113.45.45ZM9.45 9.45v1.689c0 1.012-.45 3.319-4.725 3.319C.45 14.458 0 12.15 0 11.138v-.28c0-.395.225-.62.619-.62H1.8c.281 0 .563.113.563.62 0 .393 0 1.518 2.362 1.518 2.363 0 2.363-1.125 2.363-1.519v-.956c0-.788-.619-1.069-1.519-1.463L2.138 7.144C1.18 6.751.225 5.794.225 4.444V3.32C.225 2.081.788 0 4.725 0 6.301 0 7.482.338 8.27.956c.675.563 1.012 1.35 1.012 2.307v.225c0 .394-.225.619-.562.619H7.538c-.562 0-.562-.45-.562-.62 0-.674-.225-1.518-2.194-1.518-1.97 0-2.194.788-2.194 1.519v.394c0 .73.394.956.9 1.125l3.656 1.406c1.52.731 2.307 1.688 2.307 3.038Z" fill="#088475"/></svg>